<?xml version="1.0" encoding="utf-8"?>
<!-- Generator: Adobe Illustrator 21.1.0, SVG Export Plug-In . SVG Version: 6.00 Build 0)  -->
<svg version="1.1" id="Layer_1" xmlns="http://www.w3.org/2000/svg" xmlns:xlink="http://www.w3.org/1999/xlink" x="0px" y="0px"
	 viewBox="0 0 179 79.2" style="enable-background:new 0 0 179 79.2;" xml:space="preserve">
<style type="text/css">
	.st0{stroke:#231F20;stroke-width:0.75;stroke-miterlimit:10;}
</style>
<title>Asset 15</title>
<g id="Layer_2">
	<g id="BunBottom">
		<path class="st0" d="M175.8,26.5c0,13.1-46,16.8-93,15.9C35.8,39.2,4.1,32.2,4.1,19.1l0.7-2.9C1.2,25,0.4,41.8,0.4,45.1
			c2,27.1,44.3,30.5,89.9,33.6c45.6,0.8,86.3-0.9,88.3-27.8c0-3.3,0.1-18.2-3.5-27.3"/>
		<path class="st0" d="M90.3,1.1C43.2-2.1,4.1,5.9,4.1,19.1s31.7,20.1,78.7,23.3c47.1,0.9,93-2.7,93-15.9S136.7,1.9,89.7,1"/>
	</g>
</g>
</svg>
