<svg xmlns="http://www.w3.org/2000/svg" viewBox="0 0 268.4 83.74"><defs><style>.cls-1{fill:#010101;}</style></defs><title>Asset 8</title><g id="Layer_2" data-name="Layer 2"><g id="Cheese"><path class="cls-1" d="M77.06,22.68l2.36.25,2.43.17,2.46.08h2.48l2.47-.09,2.42-.18L94,22.65l2.26-.34,2.14-.42,2-.49,1.85-.56,1.67-.63,1.48-.69,1.27-.74,1-.8.24-.25s0,0,.06,0,0,0,0-.06l.49-.52.5-.8a.45.45,0,0,0,0-.11l.24-.82a.47.47,0,0,0,0-.13v-.82a.5.5,0,0,0,0-.13l-.27-.82a.47.47,0,0,0-.05-.1l-.58-.87-.82-.83-1.05-.77-1.28-.73-1.49-.67L102.1,8.9l-1.86-.55-2-.48-2.16-.41-2.28-.33-2.36-.25L89,6.71l-2.47-.08H84.06l-2.47.09-2.42.18-2.36.26-2.26.34-2.14.42-2,.49L68.55,9l-1.67.63-1.48.69L64.14,11l-1,.8-.8.85-.5.8a.48.48,0,0,0,0,.11l-.25.82a.53.53,0,0,0,0,.14l0,.82a.49.49,0,0,0,0,.13l.27.82,0,.1.58.87.36.36s0,0,0,.06,0,0,.07,0l.37.37,1.05.78,1.28.73,1.49.67,1.69.62,1.86.55,2,.49,2.16.41,2.26.33Zm-14.68-7.4v-.68l.21-.7.41-.68.7-.73.94-.72,1.18-.69,1.41-.66,1.61-.6,1.8-.55,2-.48,2.11-.41L76.93,8l2.32-.25,2.39-.17,2.43-.09h2.44L89,7.6l2.4.16L93.68,8l2.24.33,2.12.4,2,.47,1.81.54,1.63.59,1.42.64,1.2.68,1,.7.72.71.49.75.23.69v.69l-.21.7-.41.68-.17.18-.08-.07-1.05-.78-1.28-.73-1.49-.67-1.69-.62-1.86-.55-2-.49-2.16-.41-2.28-.33-2.36-.25L89,11.7l-2.47-.08H84.06l-2.47.09-2.42.18-2.36.26-2.26.34-2.14.42-2,.49L68.55,14l-1.67.63-1.48.69L64.14,16l-1,.75,0,0L62.62,16Zm10.43,5.79-2-.48L69,20.06l-1.63-.59L66,18.82l-1.2-.68-1-.7,0,0,.83-.67,1.18-.69,1.41-.65,1.61-.6,1.8-.55,2-.48,2.11-.41L76.93,13l2.32-.25,2.39-.17,2.43-.09h2.44l2.43.08,2.4.16,2.32.25,2.24.33,2.12.4,2,.48,1.81.54,1.63.59,1.42.64,1.2.68,1,.71,0,0-.84.65-1.18.69-1.41.65L102,20l-1.8.55-2,.48-2.11.41-2.23.34L91.6,22l-2.39.17-2.43.09H84.33l-2.43-.08L79.5,22l-2.33-.25-2.23-.33Z"/><path class="cls-1" d="M72.56,26.05l-.37-.51-.09-.09-.68-.52-.89-.47-1.08-.4-1.25-.34-1.38-.26-1.49-.19-1.56-.1-1.59,0-1.58.07-1.53.15-1.44.23-1.32.3-1.17.38-1,.45-.8.52-.49.49a.49.49,0,0,0-.09.12l-.25.52a.47.47,0,0,0,0,.19v.52a.44.44,0,0,0,0,.2l.25.51a.52.52,0,0,0,.08.12l.58.56.79.49,1,.43,1.16.37,1.32.3,1.41.22h0l1.52.15,1.58.06,1.59,0,1.56-.11,1.49-.19,1.39-.27,1.25-.34,1.09-.41.9-.48.61-.48.08-.09.37-.51a.44.44,0,0,0,.07-.16l.13-.52a.45.45,0,0,0,0-.21l-.13-.52A.46.46,0,0,0,72.56,26.05ZM65.3,29.51l-1.51.1-1.54,0-1.53-.06-1.49-.14-.47-.07a24.8,24.8,0,0,1,7.72,0Zm6.5-2.34-.29.39-.49.4-.78.42-1,.38-.49.13a25.71,25.71,0,0,0-12.29,0l-.93-.3-.89-.39L54,27.8l-.44-.44L53.37,27v-.32l.17-.36.36-.38.67-.43.89-.4,1.09-.35,1.26-.29,1.38-.22,1.48-.14L62.2,24l1.54,0,1.51.1,1.44.18L68,24.6l1.17.32,1,.36.77.4.57.44.29.39.08.33Z"/><path class="cls-1" d="M117.9,29.45a.49.49,0,0,0,.06.14l.47.72.71.66.94.6h0l1.12.54,1.34.49,1.52.42,1.67.35,1.77.27h0l1.88.19,1.94.1,2,0,2-.07,1.91-.16L139,33.5l1.72-.32,1.59-.4,1.43-.47,1.24-.53,1-.6.82-.67.5-.63a.39.39,0,0,0,.07-.12l.25-.64a.45.45,0,0,0,0-.17v-.65a.43.43,0,0,0,0-.16l-.27-.64a.49.49,0,0,0-.07-.12l-.59-.69-.83-.63-1-.58L143.6,25l-1.44-.46-1.6-.39-1.73-.31L137,23.59l-1.91-.15-2-.06-2,0-1.93.12-1.88.2-1.78.28-1.66.36-1.51.43-1.33.5-1.14.56-.93.63-.63.61-.07.09-.37.63a.43.43,0,0,0-.06.15l-.12.65a.48.48,0,0,0,0,.17Zm25.55,2-1.36.44-1.53.38-1.67.31-1.79.23-1.87.15-1.91.07-1.92,0-1.9-.1-1.85-.19-1.73-.26-1.62-.34-1.46-.4-1.27-.46-.15-.07a32.33,32.33,0,0,1,22.62,0Zm-24.72-3.26.31-.52.52-.52.81-.55,1.05-.52,1.26-.47,1.45-.41,1.61-.35,1.73-.27,1.83-.19,1.89-.11,1.92,0,1.92.06,1.87.14,1.79.22,1.68.3,1.54.37,1.37.44,1.17.48.94.52.7.53.48.57.21.5v.47l-.19.5-.39.5-.69.56-.4.23a32.77,32.77,0,0,0-24.82,0l-.64-.41-.58-.52-.36-.57-.1-.48Z"/><path class="cls-1" d="M127.73,45.22l.46-.41s0,0,.06,0,0,0,0,0l.35-.31.58-.75.06-.1.33-.76a.4.4,0,0,0,0-.13l.09-.77a.45.45,0,0,0,0-.14l-.17-.77a.4.4,0,0,0,0-.12l-.47-.84-.71-.79-.94-.74-1.16-.7-1.36-.64-1.55-.59-1.73-.52-1.89-.46-2-.39-2.13-.31-2.22-.24L111,34.53l-2.32-.07h-2.33l-2.31.1-2.27.18-2.2.26-2.1.34-2,.41-1.84.48L92,36.8l-1.5.61-1.31.67-1.09.72-.88.78-.63.84-.33.76a.38.38,0,0,0,0,.13l-.08.77a.46.46,0,0,0,0,.14l.17.77a.48.48,0,0,0,0,.12l.47.84.71.79,0,0h0l.89.7,1.16.7,1.36.65,1.55.59,1.73.53,1.89.46,2,.39,2.11.31h0l2.22.24,2.28.15,2.32.07,2.33,0,2.31-.1,2.26-.18,2.2-.26,2.1-.34,2-.41,1.84-.48,1.68-.55,1.5-.61,1.31-.67ZM87,42.12l.07-.63.25-.6.52-.69.77-.68,1-.66,1.23-.63,1.44-.59,1.63-.53,1.79-.47,1.94-.4,2.06-.33,2.16-.26,2.24-.18,2.28-.1h2.3l2.28.07,2.25.15,2.18.23,2.1.31,2,.38,1.84.45,1.68.51,1.49.56,1.29.61,1.07.64.84.66.6.66.38.7.14.64-.07.63-.28.65-.49.64-.1.09-.51-.4-1.16-.7-1.36-.64-1.55-.59-1.73-.52-1.89-.46-2-.39-2.13-.31-2.22-.24L111,39.52l-2.32-.07-2.33,0-2.31.1-2.27.18-2.2.26-2.1.34-2,.41-1.84.48L92,41.8l-1.5.61-1.31.67-1.08.71-.14.12-.42-.46-.38-.7Zm38,3.7-1.44.58-1.63.53-1.79.47-1.94.4-2.06.33-2.16.25-2.23.18-2.28.1-2.3,0-2.28-.07-2.25-.15-2.2-.23-2.09-.31-2-.38L94.5,47.1l-1.68-.51L91.33,46,90,45.41,89,44.77l-.34-.27,1-.66,1.23-.63,1.44-.59,1.63-.53,1.79-.47,1.94-.4,2.06-.33,2.16-.25,2.24-.18,2.28-.1,2.3,0,2.28.07,2.25.15,2.18.23,2.1.31,2,.38,1.84.45,1.68.51,1.49.56,1.29.61,1.08.64.34.27-1,.66Z"/><path class="cls-1" d="M104.66,57.48l-.27-.64a.63.63,0,0,0-.07-.11l-.59-.69-.82-.63-1-.58-1.25-.52-1.44-.46-1.59-.39-1.73-.31L94,52.93l-1.91-.14-2-.06-2,0-1.93.12-1.87.2-1.78.28L81,53.7l-1.51.43-1.33.5L77,55.2l-.93.63-.63.61-.07.09-.37.63a.43.43,0,0,0-.06.15L74.8,58a.48.48,0,0,0,0,.17l.14.64a.47.47,0,0,0,.06.14l.4.63.07.09.71.66.94.6,1.15.55,1.35.49,1.51.42,1.67.35,1.76.27h0l1.88.19,1.94.1,2,0,2-.07,1.91-.16L96,62.83l1.72-.32,1.59-.4,1.42-.47,1.24-.53.33-.19.09-.05.62-.36.81-.66.5-.63a.39.39,0,0,0,.07-.12l.25-.64a.45.45,0,0,0,0-.17v-.65A.44.44,0,0,0,104.66,57.48Zm-4.2,3.33-1.36.44-1.53.38-1.67.31-1.78.23-1.86.15-1.91.07-1.92,0-1.89-.1-1.85-.19L83,61.84l-1.62-.34-1.45-.4-1.27-.46-.13-.06a31.81,31.81,0,0,1,22.56,0Zm3.16-2.09-.39.5-.69.56-.41.23a32.74,32.74,0,0,0-24.76,0l-.65-.41L76.13,59l-.33-.52L75.7,58l.09-.48.31-.52.52-.52.81-.55,1-.52L79.72,55l1.45-.41,1.6-.35,1.73-.27,1.83-.19,1.89-.11,1.92,0,1.91.06,1.87.14,1.79.23,1.68.3,1.54.37,1.37.44,1.17.48.94.52.7.53.48.57.21.5v.47Z"/><path class="cls-1" d="M205.39,29.69l1.58-.62,1.39-.68,1.18-.74.89-.74h0l0,0,.72-.85.41-.79a.41.41,0,0,0,0-.12l.17-.79a.46.46,0,0,0,0-.14l-.09-.79a.36.36,0,0,0,0-.13l-.4-.88-.65-.83-.88-.79L208.69,20l-1.32-.68-1.53-.63-1.71-.57-1.88-.51-2-.44-2.15-.36-2.25-.28-2.33-.2-2.38-.12-2.4,0-2.4.05-2.37.14-2.31.22-2.24.3-2.13.38-2,.45-1.85.52-1.67.59-1.49.65-1.29.71-1.07.76-.84.82-.54.78a.4.4,0,0,0-.05.1l-.29.79a.48.48,0,0,0,0,.13l0,.8a.43.43,0,0,0,0,.14l.22.79a.58.58,0,0,0,0,.11l.52.86.56.59s0,0,0,0l0,0,.15.16,1,.76,1.22.71,1.43.66,1.62.6,1.8.54,2,.47,2.09.4,2.19.32h0l2.29.25,2.36.16L188,32h2.41l2.39-.1,2.34-.18,2.28-.26,2.19-.34,2.06-.41,1.93-.49ZM167,24.36l0-.66.25-.67.45-.66.74-.71,1-.69,1.21-.66,1.42-.62,1.62-.57,1.8-.51,2-.44,2.09-.37,2.2-.3,2.28-.21,2.34-.13,2.37-.05,2.37,0,2.34.12,2.3.2,2.21.28,2.11.36,2,.43,1.83.5,1.65.55,1.46.6,1.25.64,1,.67.78.68.54.68.32.73.08.66-.14.67-.33.64-.41.48-.29-.24L208.69,25l-1.32-.68-1.53-.63-1.71-.57-1.88-.51-2-.44-2.15-.36-2.25-.29-2.33-.2-2.38-.12-2.4,0-2.4.05-2.37.14-2.31.22-2.23.3-2.13.38-2,.45-1.85.52-1.67.59-1.49.65-1.29.71-1.05.75-.05,0-.24-.25-.44-.73Zm34.49,5.51-2,.41-2.15.33-2.24.25-2.31.18-2.35.1h-2.38l-2.36-.07-2.32-.16-2.27-.24-2.16-.32-2-.39L175,29.51,173.24,29l-1.56-.58-1.36-.63-1.13-.66-.63-.48.89-.67,1.21-.66,1.42-.62,1.62-.57,1.8-.51,2-.44,2.09-.37,2.2-.3,2.28-.21,2.34-.13,2.37-.05,2.37,0,2.35.12,2.29.2,2.21.28,2.11.36,2,.43,1.83.5,1.65.55,1.46.6,1.25.64,1,.68.17.14-.39.32-1.09.68-1.32.64-1.52.59-1.71.54Z"/><path class="cls-1" d="M216.07,36.65a.48.48,0,0,0,.07.12l.58.65.81.59.91.47,0,0,.09,0,1.22.47,1.4.41,1.55.33,1.65.25h0l1.77.18,1.82.09h1.84l1.82-.09,1.77-.17,1.69-.25,1.57-.33L238.1,39l1.24-.48,1-.54.83-.62.52-.58a.48.48,0,0,0,.08-.12l.27-.6a.43.43,0,0,0,0-.17v-.61a.44.44,0,0,0,0-.18l-.25-.6a.48.48,0,0,0-.07-.12l-.58-.65-.81-.59-1-.53-1.22-.47-1.4-.41-1.55-.33-1.68-.26L231.74,31l-1.82-.09h-1.84l-1.82.09-1.77.17-1.69.25-1.56.33-1.42.41-1.24.48-1.05.55-.83.61-.52.58a.51.51,0,0,0-.08.12l-.27.6a.43.43,0,0,0,0,.17v.61a.44.44,0,0,0,0,.18Zm20.4,1.92-1.51.32-1.64.25-1.73.17-1.78.09H228l-1.78-.09-1.73-.17-1.61-.25-1.5-.32-1.33-.39-.11,0a29.05,29.05,0,0,1,18,0l-.14.05Zm-19.79-3.2.2-.46.4-.46.7-.52,1-.49L220.1,33l1.35-.39,1.51-.32,1.64-.25,1.73-.17,1.78-.09h1.8l1.78.09,1.72.17,1.63.25,1.49.32,1.33.39,1.14.44.92.48.67.48.46.53.19.45v.42l-.2.46-.4.46-.71.52-.69.35a30,30,0,0,0-20.56,0l-.68-.35-.67-.48-.46-.53-.19-.45Z"/><path class="cls-1" d="M189,43.58l-.37-.66a.37.37,0,0,0-.07-.1l-.68-.69-.91-.64-1.13-.59-1.33-.53L183,39.91l-1.67-.4-1.81-.32L177.64,39l-2-.16-2-.07-2,0-2,.11-2,.18-1.88.27-1.76.35-1.62.42-1.45.49-1.27.56-1.06.62-.84.69-.53.65a.35.35,0,0,0-.06.11l-.28.67a.41.41,0,0,0,0,.16l0,.67a.42.42,0,0,0,0,.16l.24.67a.45.45,0,0,0,.06.12l.56.72.8.67.41.25.07,0,.54.32,1.23.56,1.42.5,1.6.43,1.74.36,1.84.28h0l2,.2,2,.11,2,0,2-.06,2-.15,1.92-.23,1.82-.31,1.7-.39,1.54-.46,1.36-.52,1.17-.59,1-.66.65-.63.07-.09.4-.66a.54.54,0,0,0,.06-.14l.15-.67a.45.45,0,0,0,0-.17l-.11-.67A.45.45,0,0,0,189,43.58Zm-3.65,3.61-1.29.5-1.48.44-1.64.38-1.78.3-1.88.22-2,.14-2,.06-2,0-2-.11-1.92-.2-1.81-.27L164,48.28l-1.54-.42-1.36-.47-.9-.41a33.23,33.23,0,0,1,25.63,0ZM188.19,45l-.34.55-.55.55-.51.35a34.15,34.15,0,0,0-27.63,0l-.16-.1-.67-.56-.46-.6-.19-.52v-.51l.22-.53.42-.53.72-.59,1-.56,1.19-.52,1.39-.47,1.56-.41,1.71-.34,1.83-.27,1.93-.18,2-.1,2,0,2,.07,1.95.15,1.87.24,1.76.31,1.62.38,1.45.44,1.26.5,1,.53.8.56.58.6.3.55.09.51Z"/><path class="cls-1" d="M165.93,61.25a.46.46,0,0,0,0-.13l-.47-.82-.71-.77-.95-.72-1.17-.67-1.38-.62-1.57-.56-1.75-.49L156,56l-2-.35-2.13-.27-2.21-.18-2.25-.1-2.28,0-2.26.07-2.23.16-2.16.24-2.07.32-1.95.4-1.8.47-1.64.54-1.45.61-1.25.67-1,.72-.8.79-.49.74-.06.12-.23.75a.45.45,0,0,0,0,.14l0,.75a.39.39,0,0,0,0,.14l.28.75a.52.52,0,0,0,.06.11l.59.79.56.51h0l.27.24,1.06.7,1.28.65,1.48.59,1.66.53,1.82.46,2,.39,2.06.3h0L141,69l2.23.14,2.27.06,2.27,0L150,69l2.2-.2,2.12-.28,2-.36,1.88-.44,1.72-.51,1.55-.57,1.35-.63,1.14-.69.51-.42,0,0h0l.37-.3.67-.82.36-.74a.44.44,0,0,0,0-.13l.11-.75a.41.41,0,0,0,0-.15Zm-3.51,4-1.27.6-1.48.55L158,66.9l-1.83.42-2,.36-2.08.28-2.16.2-2.22.11-2.24,0-2.24-.06-2.2-.14-2.14-.23-2-.3L135,67.2l-1.77-.44-1.6-.51-1.41-.56-1.2-.6-.65-.43.42-.3,1.17-.62,1.38-.58,1.58-.52,1.75-.46,1.9-.39,2-.32,2.12-.24,2.19-.16L145.1,61l2.24,0,2.22.1,2.17.18,2.09.26,2,.34,1.85.41,1.7.48,1.51.53,1.3.59,1.09.63.16.11Zm2.68-2.55-.27.58-.55.67-.14.12-.39-.28-1.17-.67-1.38-.62-1.57-.56-1.75-.49L156,61l-2-.35-2.13-.27-2.21-.18-2.25-.1-2.28,0-2.26.07-2.23.16-2.16.24-2.07.32-1.95.4-1.8.47-1.64.54-1.45.61-1.25.67-.69.48-.3-.27-.5-.68-.23-.62,0-.6.19-.62.39-.6.68-.67.93-.65,1.17-.62,1.38-.58,1.58-.52,1.75-.46,1.9-.39,2-.32,2.12-.24,2.19-.16L145.1,56l2.24,0,2.22.1,2.17.18,2.09.26,2,.34,1.85.41,1.7.48,1.51.53,1.3.59,1.08.62.84.64.59.63.37.68.12.61Z"/><path class="cls-1" d="M268.35,28.8c0-.05,0-.11-.05-.16h0s-.1,0-.15-.07h0s-.09-.06-.14-.06h0l-2.09-.06-2-.14-2-.23L260,27.74l-1.7-.4-1.52-.47-1.3-.52-1.06-.56-.8-.58-.09-.1V22s0,0,0,0a.4.4,0,0,0-.05-.13.41.41,0,0,0-.06-.13l0,0,0,0s-.07,0-.11,0-.06-.06-.11-.06L164.92,10.48s-.06,0-.09,0a.37.37,0,0,0-.15,0,.37.37,0,0,0-.14.12s0,0-.06,0l-.37.68-.64.7-.9.68-1.13.66-1.36.61-1.57.56-1.76.5-1.92.44-2.06.36-2.17.28-2.25.2L146,16.5l-2.33,0-2.32-.06-2.28-.15-2.22-.24-2.12-.31-2-.39-1.85-.46-1.68-.53-1.48-.58-1.26-.63-1-.65.45-.34,1.2-.67s0,0,0,0a.39.39,0,0,0,.1-.13.38.38,0,0,0,.06-.15s0,0,0-.06v-5s0-.06,0-.1,0-.08,0-.12l0,0,0,0a.41.41,0,0,0-.11-.07.41.41,0,0,0-.13-.07l0,0L81.74,0s-.09,0-.13,0-.07,0-.11,0A42.56,42.56,0,0,1,59.14,3.7h0a.43.43,0,0,0-.25.09l0,0L28.6,30.44h0s0,.1-.06.15a.44.44,0,0,0-.06.15h0v5h0a.42.42,0,0,0,.1.22s0,.06,0,.08a.44.44,0,0,0,.31.13h0l2.56-.08H34l2.55.09,2.51.17,2.45.26,2.36.33,2.25.41,2.11.48,2,.55L52,39l1.59.66,1.37.7,1.14.73.92.77h0l-.23.24-1,.76-1.23.73-1.44.7L51.5,45l-1.84.59-2,.52-2.16.46-2.29.39-2.39.31-2.48.23-2.53.15-2.56.06-2.57,0-2.55-.11-2.5-.19-2.43-.27-2.34-.35-2.22-.42-2.09-.49-1.92-.56-1.77-.63h-.06a.39.39,0,0,0-.17,0,.4.4,0,0,0-.15.05l-.06,0L.18,55.51h0s0,.08-.06.12-.07.09-.08.15H0v0H0v5c0,.05,0,.08.05.13a.41.41,0,0,0,.07.16.42.42,0,0,0,.14.08s.07.07.13.07l21.93,2.76h.06a.44.44,0,0,0,.3-.12s0-.06,0-.09a.41.41,0,0,0,.09-.17s0,0,0,0,0,0,0,0V61l.31-.31.81-.58L25,59.53,26.27,59l1.47-.45,1.64-.38,1.78-.31L33,57.65l2-.15,2-.06,2,0,2,.11,1.92.19,1.83.28,1.7.35,1.54.42,1.36.48.92.42-.12.07-1.23.52-1.43.46-1.63.4s0,0-.06,0a.37.37,0,0,0-.12.06.39.39,0,0,0,0,.06.39.39,0,0,0-.06.12s0,.05,0,.09,0,0,0,0,0,0,0,0v5c0,.05,0,.08.05.13a.26.26,0,0,0,.21.24s.07.07.13.07l132.58,16.7h.06a.44.44,0,0,0,.3-.12s0-.06,0-.09a.41.41,0,0,0,.09-.17s0,0,0,0,0,0,0,0V79.21l.25-.25.88-.7,1.11-.67,1.33-.64,1.53-.59,1.71-.54,1.88-.48,2-.41,2.14-.33,2.24-.25,2.31-.18,2.35-.1h2.37l2.36.07,2.32.15,2.26.24,2.17.31,2.06.38,1.92.45,1.77.52,1.59.57,1.42.64s.06,0,.09,0,.05,0,.09,0,.06,0,.09,0l.12,0s.06,0,.09,0l11.78-10.38h0a2.71,2.71,0,0,0,.14-.31h0v-5h0v0s0-.06-.05-.1h0c0-.05,0-.11-.05-.16h0l0,0s-.06,0-.09,0h0a.43.43,0,0,0-.17-.07h0l-2.37.16-2.4.08h-2.41l-2.4-.09L219,61.11l-2.28-.26-2.18-.34-2.06-.42-1.91-.48-1.74-.55-1.55-.6-1.33-.65-1.1-.68-.49-.4.22-.19,1.05-.7,1.29-.66,1.5-.62,1.7-.57,1.88-.5,2-.43,2.16-.36,2.26-.28,2.34-.2,2.39-.11,2.41,0,2.41.06,2.38.14,2.32.23,2.23.31,2.11.38,2,.46,1.81.52,1.63.58,1.46.65s.06,0,.1,0,.05,0,.09,0,.06,0,.09,0l.12,0s.06,0,.09,0l23.91-21.09h0a2.71,2.71,0,0,0,.14-.31h0v-5C268.4,28.88,268.36,28.85,268.35,28.8ZM244.49,50.22l23-20.3v3.81l-23,20.3ZM125.41,11.45l-.66.49-.09-.08-.55-.71-.28-.66,0-.63.17-.65.37-.63.66-.7.92-.68.54-.3v4Zm-68.78,29-1.23-.79L54,38.88l-1.64-.68-1.83-.62-2-.56-2.15-.49-2.29-.41-2.39-.34-2.48-.26-2.55-.17L34,35.25h-2.6l-2.11.07V31.21l2.13-.07H34l2.55.09,2.51.17,2.45.25,2.36.33,2.25.41,2.11.48,2,.55L52,34l1.59.66,1.37.7,1.14.73.91.75.66.75.44.8.19.74,0,.73-.23.7-.43.68ZM21.93,59v1.77h0v2.33l-21-2.65v-4.1ZM48.25,58l-1.6-.44-1.75-.36L43,56.88l-2-.2-2-.11-2.05,0-2,.06-2,.15L31,57l-1.82.32-1.69.4L26,58.18l-1.35.54-1.15.6-.66.47V58.63s0-.08,0-.12,0-.08,0-.12l-.38-.6-.12-.52.08-.51.3-.55.52-.55.81-.58L25,54.53,26.27,54l1.47-.45,1.64-.38,1.78-.31L33,52.65l2-.15,2-.06,2,0,2,.11,1.92.19,1.83.28,1.7.35,1.54.42,1.36.48,1.14.52.91.55.65.56.44.6.17.52,0,.51-.25.54-.46.54-.73.56-1.49-.74ZM178.09,78.69V79h0v3.76L46.39,66.2V62.1Zm38.15-3.37-1.82-.53-2-.47-2.1-.39-2.21-.31-2.29-.24-2.36-.15-2.39-.07h-2.4l-2.38.1-2.34.18-2.27.26-2.18.34-2.06.41-1.93.48-1.77.56-1.59.61-1.4.67-1.19.73-.69.55s0,0,0,0h0l-.49-.66-.28-.72,0-.66.17-.67.35-.64.64-.71.88-.7,1.11-.67,1.33-.64,1.53-.59,1.71-.54,1.88-.48,2-.41,2.14-.33,2.24-.25,2.31-.18,2.35-.1h2.37l2.36.07,2.32.15,2.26.24,2.17.31,2.06.38,1.92.45,1.77.52,1.59.57,1.16.52v4l-.83-.37Zm14.24-8.94L219.6,76V72.18l10.89-9.6Zm-25-7.79,1.4.69,1.61.62,1.79.57,2,.49,2.1.42,2.22.35,2.32.26,2.39.18,2.43.09h2.45l2.43-.08,1.07-.07-10.58,9.33-1.19-.54-1.64-.59-1.82-.53-2-.47-2.1-.39-2.21-.31-2.3-.24-2.35-.15-2.39-.07h-2.4l-2.38.1-2.34.18-2.27.26-2.18.34-2.06.41-1.93.48-1.77.56-1.59.61-1.4.67-1.19.73-1,.78-.75.84-.44.78a.4.4,0,0,0,0,.11l-.2.79a.42.42,0,0,0,0,.14l.06.79a.39.39,0,0,0,0,.13l.34.83L48.26,61.44l1-.31,1.31-.55.79-.44h0l.31-.17.88-.68.57-.65a.5.5,0,0,0,.07-.11l.31-.67a.45.45,0,0,0,0-.16l0-.68a.43.43,0,0,0,0-.17l-.21-.67a.4.4,0,0,0-.06-.13l-.55-.73-.78-.68-1-.62-1.23-.56L48.25,53l-1.6-.44-1.75-.36L43,51.89l-2-.2-2-.11-2.05,0-2,.06-2,.15L31,52l-1.82.32-1.69.4L26,53.19l-1.35.54-1.15.6-.93.67-.62.64-.07.1-.36.67a.51.51,0,0,0-.05.15l-.1.68a.52.52,0,0,0,0,.17l.16.67h0l-20-2.53,11.31-10,1.55.55,2,.57,2.13.51,2.26.43,2.37.35,2.47.28,2.53.19,2.58.11,2.59,0,2.59-.06,2.56-.15,2.51-.23,2.42-.31,2.32-.39,2.2-.47,2.05-.54,1.89-.61,1.71-.67L55,44.41l1.3-.78,1.08-.83.53-.55.06,0s0,0,0-.07l.23-.24.59-.94.29-.86a.42.42,0,0,0,0-.12l0-.86a.48.48,0,0,0,0-.13L59,38.15a.44.44,0,0,0,0-.1l-.52-.93-.77-.87-1-.83-1.23-.79L54,33.88l-1.64-.68-1.83-.62-2-.56-2.15-.49-2.29-.41-2.39-.34-2.48-.26-2.55-.17L34,30.26h-2.6l-1.33,0L59.26,4.59a43.14,43.14,0,0,0,4.45.24A43.44,43.44,0,0,0,81.74.9l43.74,5.51-.07,0-1,.76-.78.82-.46.77a.42.42,0,0,0-.05.12l-.2.78a.45.45,0,0,0,0,.14l.06.78a.56.56,0,0,0,0,.14l.33.78.06.1.65.82.33.29s0,0,0,0,0,0,.06,0l.49.43L126,14l1.34.67,1.55.61,1.74.55,1.9.47,2,.4,2.16.32,2.26.24,2.32.15,2.36.06,2.36,0,2.34-.11,2.29-.2,2.21-.29,2.1-.36,2-.44,1.81-.52,1.63-.59,1.44-.65,1.22-.71,1-.77.75-.83.29-.51,87.18,11-.05.07a.38.38,0,0,0-.07.13l-.24.7a.45.45,0,0,0,0,.17l0,.7a.51.51,0,0,0,0,.16l.32.7a.43.43,0,0,0,.07.11l.39.43a.38.38,0,0,0,.09.1l.19.21.92.68,1.16.62,1.38.56,1.58.49,1.75.41,1.9.33,2,.24,2.09.15,1,0L244,49.5,242.74,49l-1.69-.6-1.86-.54-2-.47L235,47l-2.26-.31-2.35-.23L228,46.28l-2.44-.06-2.44,0-2.42.11-2.37.2-2.3.29-2.19.36-2.07.44-1.93.51-1.75.59-1.56.64-1.36.71-1.15.76-.91.82-.67.88-.36.8a.57.57,0,0,0,0,.13l-.1.81a.42.42,0,0,0,0,.14l.16.81a.39.39,0,0,0,0,.12l.48.89.68.78h0l0,0,1,.79ZM241,53.35l-1.86-.54-2-.47L235,52l-2.26-.31-2.35-.23L228,51.27l-2.44-.06-2.44,0-2.42.11-2.37.2-2.3.29-2.19.36-2.07.44-1.93.51-1.75.59-1.56.64-1.36.7-1.14.75-.33.28-.34-.38-.39-.75-.13-.67.08-.68.27-.64.56-.72.81-.72,1.05-.7,1.29-.67,1.5-.62,1.7-.57,1.88-.5,2-.43,2.16-.36,2.26-.28,2.34-.2,2.39-.11,2.41,0,2.41.06,2.38.14,2.32.23,2.23.31,2.11.38,2,.46,1.81.52,1.63.58,1.2.53v4l-.86-.38Z"/></g></g></svg>