<svg xmlns="http://www.w3.org/2000/svg" viewBox="0 0 164.99 48.97"><defs><style>.cls-1,.cls-2{fill:none;stroke:#231f20;stroke-miterlimit:10;}.cls-1{stroke-width:0.75px;}</style></defs><title>Asset 2</title><g id="Layer_2" data-name="Layer 2"><g id="Onions"><ellipse class="cls-1" cx="51.06" cy="16.59" rx="15.85" ry="50.3" transform="translate(30.83 66.33) rotate(-85.86)"/><ellipse class="cls-1" cx="51.16" cy="16.43" rx="13.28" ry="42.17" transform="translate(31.08 66.27) rotate(-85.86)"/><path class="cls-1" d="M99.82,23.92"/><path class="cls-1" d="M9.95,16.43C16.67,9,34.16,6.51,51.77,7.78,68.89,9,85.7,12.15,92.05,22.22"/><path class="cls-1" d="M101.24,20.22c-.18,2.57-.39,6.93-.5,8.56C100.1,37.51,77.13,43,49.42,41S-.24,30.26.39,21.53c.11-1.46.5-5.81.5-8.56"/><line class="cls-1" x1="2.24" y1="17.11" x2="1.63" y2="25.52"/><line class="cls-1" x1="4.63" y1="19.68" x2="4.02" y2="28.1"/><line class="cls-1" x1="7.16" y1="21.29" x2="6.55" y2="29.7"/><line class="cls-1" x1="9.2" y1="22.59" x2="8.6" y2="31"/><line class="cls-1" x1="11.86" y1="23.89" x2="11.25" y2="32.3"/><line class="cls-1" x1="15.39" y1="25.5" x2="14.78" y2="33.91"/><line class="cls-1" x1="14.08" y1="7.77" x2="13.67" y2="13.41"/><line class="cls-1" x1="11.7" y1="9.25" x2="11.28" y2="15.14"/><line class="cls-1" x1="17.45" y1="6.31" x2="17.07" y2="11.67"/><line class="cls-1" x1="22.19" y1="4.78" x2="21.81" y2="10.14"/><line class="cls-1" x1="26.42" y1="4.11" x2="26.07" y2="8.99"/><line class="cls-1" x1="30.65" y1="3.47" x2="30.28" y2="8.48"/><line class="cls-1" x1="35.77" y1="3.12" x2="35.44" y2="7.81"/><line class="cls-1" x1="40.38" y1="2.86" x2="40.04" y2="7.51"/><line class="cls-1" x1="45.75" y1="2.89" x2="45.42" y2="7.49"/><line class="cls-1" x1="52.11" y1="3.18" x2="51.77" y2="7.78"/><line class="cls-1" x1="57.97" y1="3.61" x2="57.63" y2="8.28"/><line class="cls-1" x1="63.9" y1="4.57" x2="63.58" y2="9"/><line class="cls-1" x1="67.63" y1="5.25" x2="67.31" y2="9.6"/><line class="cls-1" x1="72.51" y1="6.35" x2="72.2" y2="10.61"/><line class="cls-1" x1="77.94" y1="7.91" x2="77.63" y2="12.18"/><line class="cls-1" x1="82.47" y1="9.52" x2="82.14" y2="14.01"/><line class="cls-1" x1="86.14" y1="11.31" x2="85.8" y2="15.95"/><line class="cls-1" x1="89.6" y1="13.63" x2="89.23" y2="18.73"/><line class="cls-1" x1="91.46" y1="15.23" x2="91.05" y2="20.81"/><line class="cls-1" x1="19.86" y1="27.17" x2="19.25" y2="35.58"/><line class="cls-1" x1="24.65" y1="28.63" x2="24.04" y2="37.04"/><line class="cls-1" x1="30.78" y1="29.7" x2="30.17" y2="38.12"/><line class="cls-1" x1="35.89" y1="30.85" x2="35.28" y2="39.26"/><line class="cls-1" x1="41.39" y1="31.66" x2="40.78" y2="40.08"/><line class="cls-1" x1="47.91" y1="32.38" x2="47.3" y2="40.79"/><line class="cls-1" x1="54.91" y1="32.88" x2="54.3" y2="41.3"/><line class="cls-1" x1="64.04" y1="32.88" x2="63.43" y2="41.3"/><line class="cls-1" x1="72.66" y1="32.53" x2="72.05" y2="40.94"/><line class="cls-1" x1="78.08" y1="31.96" x2="77.48" y2="40.37"/><line class="cls-1" x1="82.58" y1="31.16" x2="81.97" y2="39.58"/><line class="cls-1" x1="87.69" y1="30.04" x2="87.08" y2="38.45"/><line class="cls-1" x1="90.94" y1="28.97" x2="90.33" y2="37.39"/><line class="cls-1" x1="94.72" y1="27.36" x2="94.12" y2="35.78"/><line class="cls-1" x1="97.93" y1="25.41" x2="97.32" y2="33.82"/><path class="cls-1" d="M88.87,8.48"/><path class="cls-1" d="M71.71,29.37c-4.93-2.85-7.69-6-7.46-9.19.26-3.54,4.18-6.54,10.6-8.72"/><path class="cls-1" d="M88.87,8.48A140.19,140.19,0,0,1,115.57,8c27.71,2,49.66,10.7,49,19.43S141,41.62,113.28,39.62a147.47,147.47,0,0,1-21.05-3"/><path class="cls-1" d="M93.31,10.77"/><path class="cls-1" d="M78.44,28.15c-4-2.34-6.17-4.94-6-7.54.21-2.86,3.28-5.31,8.34-7.12"/><path class="cls-1" d="M78.44,28.15"/><path class="cls-1" d="M83.83,30.76"/><path class="cls-1" d="M93.31,10.77a117.85,117.85,0,0,1,22.16-.37c23.23,1.68,41.63,9,41.1,16.29s-19.79,11.89-43,10.21a124.37,124.37,0,0,1-17-2.38"/><path class="cls-1" d="M163.18,31.14"/><path class="cls-1" d="M98.79,15a112.83,112.83,0,0,1,16.33,0c17.13,1.24,33.94,4.36,40.29,14.44"/><path class="cls-1" d="M73.31,23.65c2.84-3.14,7.61-5.4,13.5-6.87"/><path class="cls-1" d="M63.87,30.06a5.24,5.24,0,0,1-.12-1.55c.11-1.46.5-5.81.5-8.56"/><path class="cls-1" d="M164.6,27.44c-.18,2.57-.39,6.93-.5,8.56-.63,8.73-23.61,14.18-51.31,12.18-14.54-1.05-27.49-3.95-36.43-7.72"/><line class="cls-1" x1="65.6" y1="24.33" x2="65.2" y2="29.9"/><line class="cls-1" x1="67.99" y1="26.9" x2="67.78" y2="29.75"/><path class="cls-1" d="M69.92,36.92"/><path class="cls-1" d="M70.52,28.51"/><path class="cls-1" d="M72,38.22"/><path class="cls-1" d="M72.57,29.81"/><path class="cls-2" d="M74.61,39.52"/><path class="cls-1" d="M75.22,31.11"/><path class="cls-2" d="M55.79,44.28"/><path class="cls-1" d="M78.75,32.72"/><line class="cls-1" x1="77.44" y1="14.99" x2="77.03" y2="20.63"/><line class="cls-1" x1="75.07" y1="16.47" x2="74.64" y2="22.36"/><line class="cls-1" x1="80.82" y1="13.53" x2="80.43" y2="18.89"/><line class="cls-1" x1="84.17" y1="15.1" x2="83.98" y2="17.77"/><line class="cls-1" x1="99.14" y1="10.34" x2="98.8" y2="15.03"/><line class="cls-1" x1="103.74" y1="10.08" x2="103.41" y2="14.73"/><line class="cls-1" x1="109.11" y1="10.11" x2="108.78" y2="14.71"/><line class="cls-1" x1="115.48" y1="10.4" x2="115.13" y2="15"/><line class="cls-1" x1="121.33" y1="10.83" x2="121" y2="15.5"/><line class="cls-1" x1="127.26" y1="11.79" x2="126.94" y2="16.22"/><line class="cls-1" x1="130.99" y1="12.47" x2="130.68" y2="16.82"/><line class="cls-1" x1="135.87" y1="13.57" x2="135.56" y2="17.83"/><line class="cls-1" x1="141.3" y1="15.13" x2="141" y2="19.4"/><line class="cls-1" x1="145.83" y1="16.74" x2="145.51" y2="21.23"/><line class="cls-1" x1="149.5" y1="18.53" x2="149.16" y2="23.17"/><line class="cls-1" x1="152.96" y1="20.85" x2="152.59" y2="25.95"/><line class="cls-1" x1="154.82" y1="22.45" x2="154.42" y2="28.03"/><line class="cls-2" x1="82.86" y1="39.42" x2="82.62" y2="42.8"/><line class="cls-1" x1="87.86" y1="38.02" x2="87.4" y2="44.26"/><line class="cls-1" x1="94.14" y1="36.92" x2="93.54" y2="45.34"/><line class="cls-1" x1="99.25" y1="38.07" x2="98.64" y2="46.48"/><line class="cls-2" x1="104.76" y1="38.88" x2="104.15" y2="47.3"/><line class="cls-2" x1="111.28" y1="39.6" x2="110.67" y2="48.01"/><line class="cls-2" x1="118.27" y1="40.1" x2="117.66" y2="48.52"/><line class="cls-2" x1="127.4" y1="40.1" x2="126.8" y2="48.52"/><line class="cls-2" x1="136.02" y1="39.75" x2="135.41" y2="48.16"/><line class="cls-2" x1="141.45" y1="39.18" x2="140.84" y2="47.59"/><line class="cls-1" x1="145.94" y1="38.38" x2="145.33" y2="46.8"/><line class="cls-1" x1="151.05" y1="37.26" x2="150.44" y2="45.67"/><line class="cls-1" x1="154.3" y1="36.19" x2="153.7" y2="44.61"/><line class="cls-1" x1="158.09" y1="34.58" x2="157.48" y2="43"/><line class="cls-1" x1="161.29" y1="32.63" x2="160.69" y2="41.04"/></g></g></svg>