<svg xmlns="http://www.w3.org/2000/svg" viewBox="0 0 167.49 63.37"><defs><style>.cls-1{fill:none;stroke:#231f20;stroke-miterlimit:10;stroke-width:0.75px;}</style></defs><title>Asset 14</title><g id="Layer_2" data-name="Layer 2"><g id="SaladCompound"><path class="cls-1" d="M165.13,37c-2,1.47-5.31,2.49-8.6,3.92s-6.41,3.19-8.49,6.19c-3.49,5,.47,7.37-3.47,10.57C137.68,63.31,119.64,61,116,60.5a43.56,43.56,0,0,1-12.84-3.29l-.07,0"/><path class="cls-1" d="M113.26,15.67c12.21-1.66,15.09,8.67,23.16,10,6.49,1.11,9-.57,18.56,6.47,6.69,4.95,12.61-.37,12.11,2.17a4.43,4.43,0,0,1-2,2.68"/><path class="cls-1" d="M57.23,15c-13.73,1.1-16.31,5.79-26.09,4.3-8.28-1.26-10.34-5.22-19-5-1.42,0-7.46.19-10.39,2.79s-.2,5.39.86,11.12c1.93,10.44-4.36,16.53,0,18.35C5,47.61,7,45.72,12.09,46c8.54.53,18.23,5.66,26.43,8.31h0"/><path class="cls-1" d="M147.79,41.34c-7.72.2-20.29.23-35.43-.84-12.49-.88-17.63-1.87-22.91-5.28a25,25,0,0,1-4.81-4c-3.67-4-4.5-7.55-9.73-9.68-3.85-1.57-6.84-1-10.1.15-4.75,1.72-10.06,4.8-19.41,4.7-13.58-.14-18.76-6.82-26.87-2.64A16.85,16.85,0,0,0,15,26.17c-2.93,2.57-4.85,5.94-4,8.17,1.84,4.89,15.32-.24,20.71,6.16,4.66,5.56,4.52,10.26,6.77,13.85a10.44,10.44,0,0,0,4.75,4c5.57,2.59,5.57-1.86,19.86,0C72.59,59.46,78.64,63.37,85,63c8.85-.55,13.36-3.15,18.11-5.76a46.18,46.18,0,0,1,8.76-3.93c6.59-2.06,23.69-5.63,36.12-6.13"/><path class="cls-1" d="M147.83,41.34a57,57,0,0,0,8.7-.38c-.11,0-3.25.23-8.7.38"/><path class="cls-1" d="M147.83,41.34h0"/><path class="cls-1" d="M84.65,31.23c5.91-1.6,12.58-3.48,21.9-1.88,11.77,2,12.7,7.47,27.66,10.5a77.24,77.24,0,0,0,13.58,1.49"/><path class="cls-1" d="M165.14,37h0c-3.49.12-20.84-3.87-27.11-5.78-6.6-2-10.52-4.91-24.76-15.59l-3.37-2.53C96.58,3.16,94.53,1.75,90.33.74c-2.9-.7-2.71-.21-19.55,0C58,.9,53.43.67,51.71,3.6c-1.42,2.42-.46,6,1,8.11A9.17,9.17,0,0,0,57.23,15h0c.69.3,1.39.59,2.1,1a12.19,12.19,0,0,1,5.47,5.71"/><path class="cls-1" d="M40,36.51A161.76,161.76,0,0,0,56.53,42a135.44,135.44,0,0,0,23.22,4.58c9.92,1,17.43.55,26,0s10.89-1.18,23.53-2.13c6.39-.49,11.61-.76,15-.92"/><path class="cls-1" d="M152.16,38.35A114.81,114.81,0,0,1,138.41,35c-7.6-2.36-12.44-4.73-19.55-7.94-.67-.3-14.69-6.62-23.84-10.08A160.42,160.42,0,0,0,64.17,8.71"/><path class="cls-1" d="M5.08,21.18l10,5"/><path class="cls-1" d="M105.56,44.21l-5.32-1.48-8.58-2.37"/><path class="cls-1" d="M86,51a22.15,22.15,0,0,0,8.27,1.19c4.74-.23,9.44-3.11,11.24-4.14"/><path class="cls-1" d="M79.63,44.93c-.44-1-2.7-6.9-6.59-9a13.4,13.4,0,0,0-8-1.48"/><path class="cls-1" d="M55.89,48A17.73,17.73,0,0,0,60,49.82C64.35,51.06,71.6,48.58,73.58,48"/><path class="cls-1" d="M35.2,38.88a9.25,9.25,0,0,0,2.37,2.67c3.62,2.71,10.49.5,11.27.3"/><path class="cls-1" d="M56.64,40.36c-.91-1.39-3.89-6.56-7.25-8.27A15.69,15.69,0,0,0,45,30.61"/><path class="cls-1" d="M82.8,10.78a10.15,10.15,0,0,0-5.13-4.65,9.65,9.65,0,0,0-3.18-.61"/><path class="cls-1" d="M63.13,10.29a12.15,12.15,0,0,0,3.17,2.08,12.89,12.89,0,0,0,7.94.73"/><path class="cls-1" d="M83.65,15.66a14.49,14.49,0,0,0,2.2,1.23,15.07,15.07,0,0,0,7.09,1.22"/><path class="cls-1" d="M102.59,24.34a27.34,27.34,0,0,0,3.18.37,26.72,26.72,0,0,0,4.4-.13"/><path class="cls-1" d="M111.63,22.14a6.12,6.12,0,0,0-3.3-3.42,5.52,5.52,0,0,0-2.32-.37"/><path class="cls-1" d="M123.61,31.67a48.09,48.09,0,0,0,6.11,2.93,49.64,49.64,0,0,0,6.47,2.08"/></g></g></svg>