<svg xmlns="http://www.w3.org/2000/svg" viewBox="0 0 128.66 50"><defs><style>.cls-1{fill:#010101;}</style></defs><title>Asset 13</title><g id="Layer_2" data-name="Layer 2"><g id="Tomato"><path class="cls-1" d="M128.91,22.08V32.76c0,.06-.05.11-.07.17a9.75,9.75,0,0,1-.1,1.41A7.24,7.24,0,0,1,128,36.5a10.91,10.91,0,0,1-1.39,2,14.65,14.65,0,0,1-2,1.91,24.36,24.36,0,0,1-3.29,2.16,40.18,40.18,0,0,1-4,1.93c-1.44.6-3,1.17-4.69,1.69s-3.42,1-5.23,1.43-3.74.81-5.67,1.14-4,.6-6,.83c-1.53.16-3.1.3-4.66.4s-3.16.17-4.74.2l-2.36,0c-.81,0-1.62,0-2.42,0-1.59,0-3.19-.11-4.78-.22-1.81-.12-3.59-.3-5.29-.51s-3.49-.51-5.15-.83-3-.62-4.39-1l-3.32-1c-.52-.17-1-.36-1.45-.55l-.86-.36-.6-.26c-.52-.21-1-.42-1.62-.63a18.59,18.59,0,0,0-2-.58c-.75-.17-1.57-.31-2.39-.45v0h-.19c-.82-.09-1.63-.19-2.47-.24s-1.59-.08-2.6-.08c-.75,0-1.5,0-2.25,0l-1.53.06-1.38,0-1.19,0H37.2c-2,0-3.82-.09-5.6-.19s-3.48-.24-5.14-.42-3.21-.38-4.71-.62-2.92-.51-4.27-.82-2.6-.62-3.82-1-2.33-.74-3.37-1.15a31.48,31.48,0,0,1-2.9-1.29A23.76,23.76,0,0,1,5,36.84a14.53,14.53,0,0,1-2.18-1.77,9.91,9.91,0,0,1-1.53-1.89A6,6,0,0,1,.4,31.12,7.26,7.26,0,0,1,.34,30a.4.4,0,0,1-.09-.21V19.1a.05.05,0,0,1,0,0c0-1.92.93-4.31,4.14-6.85,11.79-9.33,55-17,75.18-7.85a8.86,8.86,0,0,1,1.29.75A4.27,4.27,0,0,0,83,6a14.06,14.06,0,0,0,3.46-.1c.74-.08,1.53-.17,2.41-.21,23.22-1.1,36.81,6.23,39.53,13.5a8.4,8.4,0,0,1,.54,2.91S128.91,22.07,128.91,22.08ZM128,32.6V25.81a12.36,12.36,0,0,1-3.37,3.95c-7.35,5.8-23.73,9.86-40.62,9.86a85.56,85.56,0,0,1-25.42-3.57c-.77-.25-1.48-.56-2.24-.88a23.52,23.52,0,0,0-6.73-2,49.44,49.44,0,0,0-9-.23c-1.22,0-2.35.09-3.41.07-18.54-.22-32.3-4.35-36-10.64v7.2c0,.06.08.1.08.18A7.27,7.27,0,0,0,1.34,31a4.77,4.77,0,0,0,.73,1.71A9.59,9.59,0,0,0,3.46,34.4a13.78,13.78,0,0,0,2,1.65,21.06,21.06,0,0,0,2.33,1.36c.85.43,1.8.85,2.81,1.25s2.12.77,3.29,1.12,2.47.69,3.76,1,2.75.57,4.21.81,3.05.45,4.66.62,3.36.31,5.09.41,3.62.16,5.52.19l.16.47v-.47H38l1.17,0,1.37-.05,1.54-.06c.8,0,1.65,0,2.4,0,1,0,1.8,0,2.54.08s1.69.15,2.52.25c0,0,.08,0,.13.06v0c.94.16,1.78.31,2.55.49a19.63,19.63,0,0,1,2,.61c.59.2,1.15.42,1.68.65l.61.26.84.36c.43.17.89.35,1.39.51l3.26.94c1.37.36,2.83.68,4.32,1,1.65.32,3.36.59,5.1.81s3.45.39,5.24.51c1.57.11,3.16.19,4.73.22s3.16,0,4.74,0,3.14-.1,4.7-.2,3.1-.24,4.62-.4c2-.22,4-.5,6-.82s3.8-.7,5.61-1.13,3.53-.89,5.17-1.41,3.2-1.07,4.61-1.66a37.18,37.18,0,0,0,3.94-1.88A24,24,0,0,0,124,39.69a13.33,13.33,0,0,0,1.87-1.78,10,10,0,0,0,1.27-1.86,6.43,6.43,0,0,0,.67-1.87,9.44,9.44,0,0,0,.1-1.43C127.9,32.69,127.94,32.65,128,32.6ZM124,29c3.5-2.77,4.74-6.15,3.48-9.52-2.61-7-15.84-14-38.6-12.89-.85,0-1.62.12-2.35.2a14.41,14.41,0,0,1-3.69.1,5.05,5.05,0,0,1-2.48-1,8.35,8.35,0,0,0-1.15-.67C59.31-3.8,16.64,3.75,5,13,1.82,15.47.6,18.17,1.48,20.76c1.86,5.45,13.61,11.07,35.69,11.33,1,0,2.16,0,3.36-.07a49.63,49.63,0,0,1,9.17.24,24.64,24.64,0,0,1,7,2,21.3,21.3,0,0,0,2.15.85C80.88,42.15,113.09,37.63,124,29Z" transform="translate(-0.25 -0.25)"/><path class="cls-1" d="M116.39,20.27A6.17,6.17,0,0,1,114.85,27a19,19,0,0,1-6,3.85,47.2,47.2,0,0,1-9.2,2.84A67.71,67.71,0,0,1,86.05,35a62.65,62.65,0,0,1-6.64-.34,52.16,52.16,0,0,1-6.95-1.2h-.07s0,0-.06,0c-.37-.09-.8-.17-1.15-.26L70.45,33l-.35-.12c-.7-.25-6.87-2.5-7-5.38-.05-1.27,1-2.39,3.18-3.34.76-.33,1.72-.67,2.84-1.06,3-1.08,7.24-2.54,9.53-4.94a5,5,0,0,0,1.76-4.21,8.1,8.1,0,0,1,0-1c.21-2,4.45-2.91,8-3.34A38.12,38.12,0,0,1,97,9.65C106.49,10.67,114.47,15,116.39,20.27Zm-2.23,6a5.28,5.28,0,0,0,1.34-5.72c-1.77-4.83-9.6-9-18.62-10a36.8,36.8,0,0,0-8.34-.08C84.3,11,81.5,12,81.4,13a6.25,6.25,0,0,0,0,.87,6,6,0,0,1-2,4.89c-2.45,2.56-6.76,4.07-9.91,5.18-1.1.38-2,.71-2.77,1-1.21.54-2.65,1.39-2.61,2.43.07,1.71,3.83,3.64,6.34,4.52l.36.13c.27.09.53.19.68.23s.66.14,1,.22L73.57,32a15,15,0,0,0,1.77-.85c0-.08-.1-.16-.13-.24a2.16,2.16,0,0,1-.11-.47,1.6,1.6,0,0,1,0-.31,2.25,2.25,0,0,1,.12-.56l0,0s0,0,0,0a1.71,1.71,0,0,1,.13-.23,1.58,1.58,0,0,1,.27-.32,1.91,1.91,0,0,1,.33-.25,2.13,2.13,0,0,1,.63-.25,2.68,2.68,0,0,1,.8-.06,3.14,3.14,0,0,1,.89.22,2.69,2.69,0,0,1,.32.19l.06-.05a5.06,5.06,0,0,0,1.75-4.21,8.14,8.14,0,0,1,0-1c.21-2,4.45-2.91,8-3.34h0l2.11-.16s0-.07,0-.1a2.3,2.3,0,0,1,.47-.57,3,3,0,0,1,.8-.48,4,4,0,0,1,1-.27,4.78,4.78,0,0,1,1.07,0,4,4,0,0,1,.93.22,3.12,3.12,0,0,1,.72.4,2.19,2.19,0,0,1,.43.43,1.41,1.41,0,0,1,.21.4,1,1,0,0,1,0,.17A32.1,32.1,0,0,1,113.46,27C113.7,26.74,114,26.53,114.16,26.32ZM99.47,32.74c5.69-1.18,10.34-3,13.22-5.16a31.07,31.07,0,0,0-16.51-6.35,1.8,1.8,0,0,1-.08.21,2,2,0,0,1-.47.56,2.75,2.75,0,0,1-.8.48,4,4,0,0,1-1,.27,3.81,3.81,0,0,1-.59,0H93c.1,0,.22.06.32.11a2.85,2.85,0,0,1,.67.46,2,2,0,0,1,.39.49,1.25,1.25,0,0,1,.16.35,1.74,1.74,0,0,1,.07.54s0,0,0,.05,0,0,0,0a2.34,2.34,0,0,1-.09.38,1.5,1.5,0,0,1-.22.41,2.39,2.39,0,0,1-.54.51,3.13,3.13,0,0,1-.76.35,4,4,0,0,1-1,.17h-.15a3.91,3.91,0,0,1-.91-.1,3.83,3.83,0,0,1-.9-.31,3.12,3.12,0,0,1-.68-.46,2.47,2.47,0,0,1-.39-.49,1.46,1.46,0,0,1-.16-.36,1.76,1.76,0,0,1-.07-.49s0,0,0-.07,0,0,0-.06a2.34,2.34,0,0,1,.09-.38,1.46,1.46,0,0,1,.23-.42,2.11,2.11,0,0,1,.53-.5,2.65,2.65,0,0,1,.76-.35,3.61,3.61,0,0,1,1-.17,3,3,0,0,1,.42,0,2.69,2.69,0,0,1-.67-.37,2.29,2.29,0,0,1-.44-.44,1.65,1.65,0,0,1-.2-.37,1.53,1.53,0,0,1-.07-.29l-1.89.15c-4.16.5-7,1.5-7.13,2.49a6.43,6.43,0,0,0,0,.88,6,6,0,0,1-2,4.86c.06.08.15.14.2.22a2.06,2.06,0,0,1,.29.55,2.33,2.33,0,0,1,.12.49A2.72,2.72,0,0,1,80,31a2.35,2.35,0,0,1-.14.58s0,0,0,0v0a2,2,0,0,1-.14.25,1.7,1.7,0,0,1-.27.33,2,2,0,0,1-.34.25,2.17,2.17,0,0,1-.63.24,2.12,2.12,0,0,1-.57.07h-.22a3.49,3.49,0,0,1-.89-.21,3.39,3.39,0,0,1-.76-.45S76,32,75.92,32a14.63,14.63,0,0,1-1.89.92,52.85,52.85,0,0,0,5.47.87,61.09,61.09,0,0,0,6.55.34A67.36,67.36,0,0,0,99.47,32.74Zm-4.12-12v0s0,0,0-.07,0,0,0-.06a.84.84,0,0,0,0-.18.89.89,0,0,0-.09-.16A1.36,1.36,0,0,0,95,20a1.81,1.81,0,0,0-.48-.26,2.65,2.65,0,0,0-.7-.16,2.88,2.88,0,0,0-.83,0,2.59,2.59,0,0,0-.75.2,2,2,0,0,0-.55.33,1.08,1.08,0,0,0-.26.31.91.91,0,0,0-.08.18.81.81,0,0,0,0,.16.65.65,0,0,0,0,.2.41.41,0,0,0,.08.14,1.14,1.14,0,0,0,.24.25,2.19,2.19,0,0,0,.48.26,3,3,0,0,0,.7.17,4.74,4.74,0,0,0,.84,0,3.5,3.5,0,0,0,.74-.2,2,2,0,0,0,.55-.33,1,1,0,0,0,.26-.31A.6.6,0,0,0,95.35,20.78Zm-1.7,4.11a1,1,0,0,0,0-.17.9.9,0,0,0,0-.25.59.59,0,0,0-.06-.14,1,1,0,0,0-.23-.28,2.11,2.11,0,0,0-.45-.31,3.4,3.4,0,0,0-.68-.24,3.67,3.67,0,0,0-.83-.07,2.68,2.68,0,0,0-.75.13,2,2,0,0,0-.51.23,1.63,1.63,0,0,0-.3.28.53.53,0,0,0-.09.16,1,1,0,0,0,0,.17,1.19,1.19,0,0,0,0,.24.41.41,0,0,0,.07.15,1,1,0,0,0,.23.28,1.78,1.78,0,0,0,.45.31,2.78,2.78,0,0,0,.67.23,3.65,3.65,0,0,0,.83.08,3,3,0,0,0,.75-.13,2,2,0,0,0,.51-.23,1.36,1.36,0,0,0,.3-.28A.44.44,0,0,0,93.65,24.89Zm-14.6,6a.57.57,0,0,0,0-.13,1.31,1.31,0,0,0-.06-.27,1.41,1.41,0,0,0-.17-.32,1.75,1.75,0,0,0-.35-.37,2.43,2.43,0,0,0-.52-.3,2.18,2.18,0,0,0-.61-.15,1.64,1.64,0,0,0-.5,0,1.13,1.13,0,0,0-.36.14l-.17.12-.12.14-.06.12a1.5,1.5,0,0,0-.08.3,1.62,1.62,0,0,0,.07.4,2.08,2.08,0,0,0,.17.33,2,2,0,0,0,.35.36,2.2,2.2,0,0,0,1.12.45,1.71,1.71,0,0,0,.51,0,1.4,1.4,0,0,0,.36-.13,1.09,1.09,0,0,0,.17-.13.75.75,0,0,0,.12-.14l.06-.1A3,3,0,0,0,79.05,30.92Z" transform="translate(-0.25 -0.25)"/><path class="cls-1" d="M89,28a1.59,1.59,0,0,1,0,.49s0,0,0,.05,0,.05,0,.07l-.07.22a1.77,1.77,0,0,1-.19.35,2.31,2.31,0,0,1-.29.32,2,2,0,0,1-.63.38,3,3,0,0,1-.91.22h-.28a3.39,3.39,0,0,1-.7-.07,3.63,3.63,0,0,1-.93-.31,3.26,3.26,0,0,1-.7-.46,2.71,2.71,0,0,1-.45-.52,2.27,2.27,0,0,1-.23-.47,1.21,1.21,0,0,1-.06-.31,1.85,1.85,0,0,1,0-.47s0,0,0,0,0-.05,0-.08a1.44,1.44,0,0,1,.07-.22,1.82,1.82,0,0,1,.19-.36,2.06,2.06,0,0,1,.29-.31,2.29,2.29,0,0,1,.62-.38,3.17,3.17,0,0,1,.92-.22,4,4,0,0,1,1,.06,3.63,3.63,0,0,1,.93.31,3.17,3.17,0,0,1,.7.47,2.66,2.66,0,0,1,.45.51,2.93,2.93,0,0,1,.23.48A2,2,0,0,1,89,28Zm-.93.49s0,0,0,0v0a1.28,1.28,0,0,0,0-.27A.93.93,0,0,0,88,28a1.6,1.6,0,0,0-.11-.25,1.57,1.57,0,0,0-.28-.31,2.62,2.62,0,0,0-.49-.33,2.78,2.78,0,0,0-.69-.22,3.06,3.06,0,0,0-.73-.05,2.09,2.09,0,0,0-.62.15,1.55,1.55,0,0,0-.36.21.94.94,0,0,0-.14.16.5.5,0,0,0-.08.14h0s0,0,0,.06v0a1.28,1.28,0,0,0,0,.27l-.43.27.46-.15a.82.82,0,0,0,.12.25,1.37,1.37,0,0,0,.28.32,2.33,2.33,0,0,0,.49.33,2.94,2.94,0,0,0,.69.23,2.9,2.9,0,0,0,.72,0,2.42,2.42,0,0,0,.63-.14,1.31,1.31,0,0,0,.35-.22,1.21,1.21,0,0,0,.16-.16c0-.05,0-.1.07-.14Z" transform="translate(-0.25 -0.25)"/><path class="cls-1" d="M56.77,17.68h-.24a3.14,3.14,0,0,1-.89-.22,3.2,3.2,0,0,1-.76-.44,3,3,0,0,1-.52-.55,2.7,2.7,0,0,1-.15-.29c-1.39,0-2.79.08-4.16.16l-1.4.1c-1.16.08-2.38.2-3.69.34-1.75.2-3.48.42-5.13.68-1.8.27-3.61.59-5.38.95s-3.49.76-5.08,1.17-3.2.89-4.62,1.36-2.81,1-4,1.52A26.17,26.17,0,0,0,18,23.88a29.77,29.77,0,0,0,7.67,2.31,59.92,59.92,0,0,0,8.8.9h1.51c1.73,0,4.5-.12,7.4-.42,0-.11-.05-.21-.07-.32s0,0,0,0,0,0,0,0a2,2,0,0,1,0-.34,1.43,1.43,0,0,1,.18-.47,2.18,2.18,0,0,1,.46-.57,3.21,3.21,0,0,1,.81-.48c.13,0,.27-.07.41-.11l-.15,0a3.68,3.68,0,0,1-.9-.31,3.07,3.07,0,0,1-.67-.46,2,2,0,0,1-.39-.48,1.91,1.91,0,0,1-.17-.36,2.76,2.76,0,0,1-.07-.54s0-.06,0-.09h0a1.59,1.59,0,0,1,.09-.39,1.13,1.13,0,0,1,.23-.41,2.25,2.25,0,0,1,.52-.5,3,3,0,0,1,.77-.35,3.48,3.48,0,0,1,1-.17,4.79,4.79,0,0,1,1.07.09,3.08,3.08,0,0,1,.54.16l.36.16a2.82,2.82,0,0,1,.67.46,2.16,2.16,0,0,1,.39.48,1.47,1.47,0,0,1,.17.36,2.76,2.76,0,0,1,.07.54s0,0,0,.05,0,0,0,0a2.33,2.33,0,0,1-.08.38,1.46,1.46,0,0,1-.23.42,2.31,2.31,0,0,1-.53.5,3.34,3.34,0,0,1-.74.34,4.27,4.27,0,0,1,.64.15,2.87,2.87,0,0,1,.71.39,2.34,2.34,0,0,1,.44.45,1.63,1.63,0,0,1,.21.37,1.42,1.42,0,0,1,0,.2c2.89-.66,5.23-1.6,5.85-3a4.65,4.65,0,0,0,.26-1.26A6.63,6.63,0,0,1,56.77,17.68ZM71.47,7.23c.77.57,1.65,1.46,1.49,2.5s-1,1.61-2.57,2.17l-2,.66A36.36,36.36,0,0,0,60.27,16a.44.44,0,0,1-.36.22c-3.32,2.13-3.55,3.94-3.71,5.4a5.23,5.23,0,0,1-.35,1.55C53.73,27.84,37.76,28,36,28H34.4a61.7,61.7,0,0,1-8.93-.92C19.34,26,15,24,13.31,21.4a4.53,4.53,0,0,1-.72-3.55c.4-1.84,2-3.66,4.52-5.26C26.37,6.79,52,2.84,65.19,5.19,68.39,5.75,70.33,6.39,71.47,7.23ZM72,9.59c.07-.44-.34-1-1.11-1.59-1.33-1-4-1.54-5.88-1.88C52,3.81,26.74,7.69,17.61,13.4c-2.33,1.46-3.74,3.07-4.09,4.65a3.82,3.82,0,0,0-.08.75,3.78,3.78,0,0,0,.66,2.08A8.41,8.41,0,0,0,17,23.37l.15-.1a27.58,27.58,0,0,1,3.28-1.7c1.19-.52,2.56-1,4-1.54s3-.94,4.69-1.38,3.33-.81,5.13-1.18,3.61-.68,5.43-1c1.66-.26,3.4-.49,5.17-.68s3.54-.36,5.14-.45c1.3-.08,2.63-.12,4-.16v-.11a2.42,2.42,0,0,1,.12-.56s0,0,.05-.06h0l.13-.23a1.75,1.75,0,0,1,.28-.33,1.91,1.91,0,0,1,.33-.25,2.22,2.22,0,0,1,.62-.24,2.68,2.68,0,0,1,.8-.06,3.49,3.49,0,0,1,.89.21,2.93,2.93,0,0,1,.76.45,2.82,2.82,0,0,1,.53.56,2.42,2.42,0,0,1,.29.55s0,.07,0,.1l.89,0a36.54,36.54,0,0,1,8.45-3.63l2-.66C71.25,10.59,72,10.09,72,9.59ZM57.9,15.86a.57.57,0,0,0,0-.13,1.31,1.31,0,0,0-.06-.27,1.55,1.55,0,0,0-.18-.33,1.64,1.64,0,0,0-.34-.36,1.91,1.91,0,0,0-.52-.3,2.2,2.2,0,0,0-.6-.15,1.65,1.65,0,0,0-.51,0,.93.93,0,0,0-.36.14.88.88,0,0,0-.17.12.75.75,0,0,0-.12.14l-.06.11a1.35,1.35,0,0,0-.07.31l-.23.09s.09,0,.12.05h.11a1.68,1.68,0,0,0,.06.27,1.55,1.55,0,0,0,.18.33,1.92,1.92,0,0,0,.34.36,2.21,2.21,0,0,0,.52.3,2.18,2.18,0,0,0,.61.15,1.64,1.64,0,0,0,.5,0,1.28,1.28,0,0,0,.36-.13.7.7,0,0,0,.16-.13.79.79,0,0,0,.13-.14l.06-.11A2.86,2.86,0,0,0,57.9,15.86ZM48.22,26s0-.05,0-.07a.7.7,0,0,0-.08-.14,1.88,1.88,0,0,0-.24-.25,2.19,2.19,0,0,0-.48-.26,3.12,3.12,0,0,0-.7-.17,3.83,3.83,0,0,0-.83,0,2.51,2.51,0,0,0-.75.2,2,2,0,0,0-.55.33.89.89,0,0,0-.26.3.53.53,0,0,0-.09.33.79.79,0,0,0,0,.22.25.25,0,0,0,0,.09C45.63,26.4,47,26.21,48.22,26Zm-.49-3.5a1.06,1.06,0,0,0,0-.26s0-.09-.07-.14a1.18,1.18,0,0,0-.23-.28,2,2,0,0,0-.45-.3,3.54,3.54,0,0,0-.67-.24,3.77,3.77,0,0,0-.83-.07,2.56,2.56,0,0,0-.75.13,1.92,1.92,0,0,0-.52.24.94.94,0,0,0-.29.27.59.59,0,0,0-.1.16.51.51,0,0,0,0,.17,1.06,1.06,0,0,0,0,.26s0,.08.07.14a1.18,1.18,0,0,0,.23.27,1.8,1.8,0,0,0,.45.31,2.72,2.72,0,0,0,.68.23,3.62,3.62,0,0,0,.82.08,2.94,2.94,0,0,0,.75-.13,1.92,1.92,0,0,0,.52-.24,1.31,1.31,0,0,0,.3-.27,1.46,1.46,0,0,0,.09-.16A.86.86,0,0,0,47.73,22.46Z" transform="translate(-0.25 -0.25)"/><path class="cls-1" d="M52,18.6a1.92,1.92,0,0,1,0,.54s0,0,0,0v0a1.8,1.8,0,0,1-.06.22,2.42,2.42,0,0,1-.21.39,2.7,2.7,0,0,1-.28.31,2.55,2.55,0,0,1-.62.37,3,3,0,0,1-.92.22h-.27a3.51,3.51,0,0,1-.72-.07,3.7,3.7,0,0,1-.92-.31,3.14,3.14,0,0,1-.7-.46,2.71,2.71,0,0,1-.45-.52,2.92,2.92,0,0,1-.23-.47,1.4,1.4,0,0,1-.06-.28,1.92,1.92,0,0,1,0-.54s0,0,0,0v0a1,1,0,0,1,.06-.22,1.55,1.55,0,0,1,.21-.38,1.5,1.5,0,0,1,.3-.32,2.1,2.1,0,0,1,.6-.37,3,3,0,0,1,.92-.22,4.07,4.07,0,0,1,1,.06,3.77,3.77,0,0,1,.93.31,3.3,3.3,0,0,1,.7.47,2.39,2.39,0,0,1,.45.51,2.92,2.92,0,0,1,.23.47A1.36,1.36,0,0,1,52,18.6Zm-1,.42a1.53,1.53,0,0,0,0-.3,1.31,1.31,0,0,0-.15-.36,1.65,1.65,0,0,0-.28-.32,2.07,2.07,0,0,0-.49-.32,2.55,2.55,0,0,0-.69-.23,3,3,0,0,0-.72-.05,1.94,1.94,0,0,0-.63.15,1.3,1.3,0,0,0-.35.21.75.75,0,0,0-.15.16,1.19,1.19,0,0,0-.09.15.31.31,0,0,1,0,.08,1.36,1.36,0,0,0,0,.28.26.26,0,0,0,0,.11,1.15,1.15,0,0,0,.12.25,1.4,1.4,0,0,0,.28.32,2.11,2.11,0,0,0,.49.33,2.94,2.94,0,0,0,.69.23,2.9,2.9,0,0,0,.72,0,2.25,2.25,0,0,0,.63-.14,1.57,1.57,0,0,0,.36-.22l.14-.15a.79.79,0,0,0,.08-.16s0,0,0,0Z" transform="translate(-0.25 -0.25)"/></g></g></svg>